inDegrees=yes
name=ik_data_2024_11_07_17_49
DataType=double
version=3
OpenSimVersion=4.5.1
endheader
time	pelvis_tilt	pelvis_list	pelvis_rotation	pelvis_tx	pelvis_ty	pelvis_tz	hip_flexion_r	hip_adduction_r	hip_rotation_r	knee_angle_r	knee_angle_r_beta	ankle_angle_r	subtalar_angle_r	mtp_angle_r	hip_flexion_l	hip_adduction_l	hip_rotation_l	knee_angle_l	knee_angle_l_beta	ankle_angle_l	subtalar_angle_l	mtp_angle_l	lumbar_extension	lumbar_bending	lumbar_rotation	arm_flex_r	arm_add_r	arm_rot_r	elbow_flex_r	pro_sup_r	wrist_flex_r	wrist_dev_r	arm_flex_l	arm_add_l	arm_rot_l	elbow_flex_l	pro_sup_l	wrist_flex_l	wrist_dev_l
7.56639	0.1847024011607869	0.1273445828612789	-91.76712601550147	0	0.9399999999999999	0	0.3353660661321677	-0.3216295940303733	0.1177260186359465	0.3998422512958228	0.006978563773698672	-4.677922021200018	0	0	0.4108124740357718	0.1685345719754863	-0.09231965844101259	0.5186507776707336	0.009052163738383389	-4.677922021200018	0	0	0	0	0	0	-3.705956067281801	0	48.72398803804261	41.1823691129459	0	0	0	-3.705956067281801	0	48.72398803804261	41.1823691129459	0	0
7.57039	0.2096317149246277	0.1400849853001448	-91.76162820746529	0	0.9399999999999999	0	0.3759792500258964	-0.3987280876158811	0.03327190124165476	0.4181104632426163	0.007297404220622381	-4.678185476545473	0	0	0.4129104587093234	0.1875480489078625	-0.09124457359357788	0.5127050297968986	0.008948390861491514	-4.678185476545473	0	0	0	0	0	0	-3.707022457179797	0	48.72941961097666	41.18428673425881	0	0	0	-3.707022457179797	0	48.72941961097666	41.18428673425881	0	0
7.61915	0.1921261163389794	0.1562366279596762	-91.75727450659151	0	0.9399999999999999	0	0.4109992008562059	-0.3841054388200253	6.845346292310495e-05	0.431473687810759	0.007530636488019868	-4.678389366372322	0	0	0.4293928490500259	0.1767299370446412	-0.0880112529793724	0.5110853481938412	0.008920122084684184	-4.678389366372322	0	0	0	0	0	0	-3.707857488084849	0	48.73365645335952	41.185775943873	0	0	0	-3.707857488084849	0	48.73365645335952	41.185775943873	0	0
7.68051	0.1792905643346972	0.1917096999729334	-91.75358048246871	0	0.9399999999999999	0	0.4378382875194783	-0.3525995617514996	0.01442535584832622	0.4118939999733261	0.007188906468743976	-4.678621445392219	0	0	0.4624358771336909	0.1647363212203611	-0.07731132210955929	0.5057403935125244	0.008826835027125321	-4.678621445392219	0	0	0	0	0	0	-3.708840081491596	0	48.73858668725235	41.1874871259496	0	0	0	-3.708840081491596	0	48.73858668725235	41.1874871259496	0	0
7.7462	0.1707451137020036	0.1582996397506257	-91.75109223484884	0	0.9399999999999999	0	0.4036680997408978	-0.3228010176200722	0.01537927636509904	0.4341469663372933	0.007577294000130755	-4.678822774063535	0	0	0.4404425606522757	0.1561739507911517	-0.0765133594325843	0.5157247903123583	0.009001095625108008	-4.678822774063535	0	0	0	0	0	0	-3.709672811716782	0	48.74279788185213	41.1889619203852	0	0	0	-3.709672811716782	0	48.74279788185213	41.1889619203852	0	0
7.74879	0.1273971329733789	0.1476247058625427	-91.74938047605896	0	0.9399999999999999	0	0.3722866240970336	-0.2938550714988466	0.04462702067546812	0.4383864334153054	0.007651286659171969	-4.679077250373612	0	0	0.4255624797669913	0.1151397308432821	-0.07622253289703479	0.5119527165598287	0.008935260518498307	-4.679077250373612	0	0	0	0	0	0	-3.710770383574741	0	48.74827323369435	41.19084914849705	0	0	0	-3.710770383574741	0	48.74827323369435	41.19084914849705	0	0
7.80105	0.06577104109119768	0.1144800480042227	-91.75239505935255	0	0.9399999999999999	0	0.2926583008544779	-0.2589282826767377	0.1403093512966148	0.3995008881307686	0.006972605862523447	-4.679440621420338	0	0	0.3884681247925956	0.05213608483425398	-0.06753445049066309	0.5073652433139546	0.008855194006010654	-4.679440621420338	0	0	0	0	0	0	-3.712287722359241	0	48.7559309910709	41.19352104746876	0	0	0	-3.712287722359241	0	48.7559309910709	41.19352104746876	0	0
7.86488	0.04545945266388672	0.1003182197356601	-91.75002385106087	0	0.9399999999999999	0	0.2788267532434356	-0.211282707811166	0.1350682354571308	0.3961152460694603	0.006913515261259609	-4.679662865214819	0	0	0.3730003951672415	0.0367289097054351	-0.07310942987721637	0.511668753686931	0.00893030443141282	-4.679662865214819	0	0	0	0	0	0	-3.71319675787633	0	48.76054677889061	41.19514441730792	0	0	0	-3.71319675787633	0	48.76054677889061	41.19514441730792	0	0
7.92187	0.05877174826307527	0.1148325615127085	-91.74437212170734	0	0.9399999999999999	0	0.2681179618750907	-0.1740646218016149	0.1824733621456721	0.3757684497110855	0.006558396672573177	-4.679901812669121	0	0	0.3881961055742886	0.04879273999726395	-0.06603104345606299	0.5066979728709937	0.008843547939779746	-4.679901812669121	0	0	0	0	0	0	-3.714190929782818	0	48.76556720735942	41.19689867839805	0	0	0	-3.714190929782818	0	48.76556720735942	41.19689867839805	0	0
7.92699	0.03955431172937432	0.1152330869310444	-91.75125737547289	0	0.9399999999999999	0	0.2930967630131995	-0.139819272260708	0.1347621089481841	0.4032204936456441	0.007037525225633363	-4.680098463563613	0	0	0.388689664999177	0.02651122473214433	-0.08028796047682982	0.5118887619759002	0.008934144300437012	-4.680098463563613	0	0	0	0	0	0	-3.714996186754812	0	48.76965410949288	41.19833559006465	0	0	0	-3.714996186754812	0	48.76965410949288	41.19833559006465	0	0
7.98283	0.03558372930078758	0.1160850543214873	-91.75639924325439	0	0.9399999999999999	0	0.3274140796895608	-0.1255363370858391	0.07549868309343016	0.3909807145091732	0.006823900779985037	-4.680289367278903	0	0	0.390941072968572	0.0234066840069673	-0.0818037550857272	0.509630930213941	0.00889473770223472	-4.680289367278903	0	0	0	0	0	0	-3.715768528673027	0	48.77359204536245	41.19972637945504	0	0	0	-3.715768528673027	0	48.77359204536245	41.19972637945504	0	0
8.046469999999999	-0.1810800999948506	0.07243829555927576	-91.75037797105166	0	0.9399999999999999	0	0.3382064285289704	0.1225953636346105	-0.07225694787251392	0.4166522157538201	0.007271953000633948	-4.680706634314766	0	0	0.3314189958612266	-0.1941616540464417	-0.07555443054980145	0.5084911554866569	0.008874844880512591	-4.680706634314766	0	0	0	0	0	0	-3.717453901665641	0	48.78218641045009	41.20276404556614	0	0	0	-3.717453901665641	0	48.78218641045009	41.20276404556614	0	0
8.09839	-0.1800296576675715	0.08514634110053883	-91.75212144198755	0	0.9399999999999999	0	0.3661031166729355	0.1207414475578181	-0.09492382308141017	0.4453453039778044	0.007772741862707686	-4.680905994866982	0	0	0.3475296854924045	-0.1923993292609172	-0.07845743048529386	0.5114646302222946	0.008926741804874338	-4.680905994866982	0	0	0	0	0	0	-3.718279453502436	0	48.78636101098568	41.20422570129649	0	0	0	-3.718279453502436	0	48.78636101098568	41.20422570129649	0	0
8.10918	-0.1528081349186132	0.07341821650603918	-91.74967855389572	0	0.9399999999999999	0	0.444925879787383	-0.3428998782275983	-0.234097757380339	0.5498236585765411	0.009596233147521801	-4.681414875518073	0	0	0.3411379659139269	-0.1578565245444284	-0.08224355832046223	0.5119656471133976	0.008935486199232191	-4.681414875518073	0	0	0	0	0	0	-3.720317876093184	0	48.7967829979666	41.20792134402472	0	0	0	-3.720317876093184	0	48.7967829979666	41.20792134402472	0	0
8.164630000000001	-0.06714078375305907	0.08588825415763186	-91.75870847699919	0	0.9399999999999999	0	0.5183644856411895	-0.428027169075317	-0.3194522413786682	0.5481932750780637	0.009567777587403186	-4.681679988254511	0	0	0.3460923746156219	-0.079716614049686	-0.08998656229178624	0.5138407216784989	0.00896821242411361	-4.681679988254511	0	0	0	0	0	0	-3.721392310448063	0	48.80225534267114	41.20985346629502	0	0	0	-3.721392310448063	0	48.80225534267114	41.20985346629502	0	0
8.2163	0.5970875410429077	0.8567101025601584	-91.77004040042142	0	0.9399999999999999	0	1.266699221506851	-1.088615514218853	-0.2389590759554742	0.510900689296878	0.008916899178939074	-4.682149054822554	0	0	1.137489838195265	0.5587176585885806	-0.0980430966811628	0.5111258184014006	0.00892082842305506	-4.682149054822554	0	0	0	0	0	0	-3.723353357883598	0	48.81210652660853	41.21329386073151	0	0	0	-3.723353357883598	0	48.81210652660853	41.21329386073151	0	0
8.283429999999999	0.6176576549833208	0.8734766610047606	-91.77515900904419	0	0.9399999999999999	0	1.243015967194603	-1.045670818878887	-0.1419218829882447	0.4513354980193248	0.007877290471565563	-4.682462346440468	0	0	1.156523873564863	0.5774929938976556	-0.1042627293525742	0.5074058001918462	0.008855901857064192	-4.682462346440468	0	0	0	0	0	0	-3.724623448234707	0	48.81858505747978	41.21558047193778	0	0	0	-3.724623448234707	0	48.81858505747978	41.21558047193778	0	0
8.287890000000001	0.5637045304297832	0.8087748187043543	-91.77376569888155	0	0.9399999999999999	0	1.197854250846282	-1.03708571760772	-0.1726646627068512	0.4231668625050192	0.007385655036046724	-4.682829784213739	0	0	1.093672323854075	0.5309527718200662	-0.1057218040033785	0.5125368418125017	0.008945455427401496	-4.682829784213739	0	0	0	0	0	0	-3.726108735707887	0	48.82616362874518	41.21825874298286	0	0	0	-3.726108735707887	0	48.82616362874518	41.21825874298286	0	0
8.345840000000001	0.6012776643266728	0.7799809708770002	-91.77722350090126	0	0.9399999999999999	0	1.188267978909924	-1.053479200329155	-0.1975259378219995	0.4466924941792176	0.007796254767372953	-4.683019908831175	0	0	1.07484498283865	0.5621307917212485	-0.1057773910391745	0.5176133107321746	0.009034056524424948	-4.683019908831175	0	0	0	0	0	0	-3.726891791985612	0	48.83013374988489	41.21965199393224	0	0	0	-3.726891791985612	0	48.83013374988489	41.21965199393224	0	0
8.40044	0.596534472972885	0.4292878525226892	-91.76508784906109	0	0.9399999999999999	0	0.8410836062290278	-1.026246330722401	-0.2419527158761293	0.4511931472348103	0.007874805981682989	-4.683555302788858	0	0	0.7150849694875235	0.5781950437000077	-0.09333962727566962	0.5140585387509183	0.008972014049194383	-4.683555302788858	0	0	0	0	0	0	-3.729088268417192	0	48.84128186953793	41.223570682857	0	0	0	-3.729088268417192	0	48.84128186953793	41.223570682857	0	0
8.4665	0.5081166144120706	0.4624768825116147	-91.76482312281462	0	0.9399999999999999	0	0.8947652087107992	-0.9407896121995991	-0.2830069425890956	0.4789631715022993	0.008359484338509398	-4.683945443791097	0	0	0.740141706763364	0.4851852125953774	-0.09637628694068855	0.5111258429488758	0.008920828851489324	-4.683945443791097	0	0	0	0	0	0	-3.730710421194983	0	48.84948316955325	41.2264385554965	0	0	0	-3.730710421194983	0	48.84948316955325	41.2264385554965	0	0
8.469379999999999	0.419153014438412	0.53450950002822	-91.76713301832206	0	0.9399999999999999	0	0.9317220790516137	-0.7997860412112099	-0.2148087517937471	0.4428228143943357	0.007728716114128898	-4.684298557172241	0	0	0.8113044385743423	0.3929732240603895	-0.09715052797816394	0.5075699518591804	0.008858766844131812	-4.684298557172241	0	0	0	0	0	0	-3.732266496133677	0	48.85720305521878	41.22907893473145	0	0	0	-3.732266496133677	0	48.85720305521878	41.22907893473145	0	0
8.516579999999999	0.3189147908519173	0.4799526866459646	-91.7668176808579	0	0.9399999999999999	0	0.845796893731281	-0.6932606538466188	-0.1696271095098318	0.4496535004449138	0.007847934075881533	-4.684809327525712	0	0	0.755911517827255	0.2922045058738575	-0.09828436151356086	0.5127410939114476	0.008949020299032211	-4.684809327525712	0	0	0	0	0	0	-3.734533028095671	0	48.86843176009108	41.23290955477986	0	0	0	-3.734533028095671	0	48.86843176009108	41.23290955477986	0	0
8.582420000000001	0.3203389890903866	0.4484081244243782	-91.76892508422621	0	0.9399999999999999	0	0.8332979799023658	-0.6922480377189633	-0.1982657967436559	0.4791252795541495	0.008362313657758177	-4.684991184096729	0	0	0.7346324069595145	0.2954603008883153	-0.09728967375793703	0.520814284275997	0.009089924052033878	-4.684991184096729	0	0	0	0	0	0	-3.735287666651255	0	48.87224983321382	41.23424595899602	0	0	0	-3.735287666651255	0	48.87224983321382	41.23424595899602	0	0
8.64376	0.3378763872431121	0.3799032632951698	-91.77530086407488	0	0.9399999999999999	0	0.8195633488587596	-0.6683670502271623	-0.2821511882253864	0.5305554816785816	0.009259940019795699	-4.685141954863266	0	0	0.6778910287992835	0.3170149717155951	-0.122367713234167	0.5340702903339474	0.009321285003409428	-4.685141954863266	0	0	0	0	0	0	-3.735914794251654	0	48.87541673229915	41.23535379460264	0	0	0	-3.735914794251654	0	48.87541673229915	41.23535379460264	0	0
